<?xml version="1.0" encoding="utf-8"?>
<!-- Generator: Adobe Illustrator 23.0.1, SVG Export Plug-In . SVG Version: 6.00 Build 0)  -->
<svg version="1.1" id="Layer_1" xmlns="http://www.w3.org/2000/svg" xmlns:xlink="http://www.w3.org/1999/xlink" x="0px" y="0px"
	 viewBox="0 0 100 100" style="enable-background:new 0 0 100 100;" xml:space="preserve">
<style type="text/css">
	.st0{fill:#114C5C;}
	.st1{fill:#ECE4B7;}
	.st2{fill:#9B1C22;}
	.st3{fill:#686A6B;}
	.st4{fill:none;}
	.st5{clip-path:url(#SVGID_2_);fill:none;stroke:#686A6B;stroke-width:10;stroke-miterlimit:10;}
</style>
<g>
	<ellipse class="st0" cx="50.32" cy="49.84" rx="49.91" ry="49.96"/>
	<g>
		<ellipse class="st1" cx="50.09" cy="50.04" rx="31.79" ry="31.82"/>
		<ellipse class="st2" cx="50.09" cy="50.04" rx="28.16" ry="28.48"/>
	</g>
	<g>
		<g>
			<ellipse class="st3" cx="58.94" cy="48.56" rx="24.66" ry="15.85"/>
			<ellipse class="st2" cx="58.94" cy="48.56" rx="21.11" ry="13.57"/>
		</g>
		<g>
			<path class="st1" d="M49.25,45c0,0.2-0.06,0.36-0.17,0.5s-0.24,0.21-0.39,0.21c-0.08,0-0.36-0.11-0.87-0.33
				c-0.5-0.22-0.99-0.33-1.47-0.33c-0.15,0-0.31,0.01-0.48,0.03c-0.19,0.92-0.28,1.76-0.28,2.52c0,0.98,0.15,1.74,0.45,2.27
				c0.3,0.53,0.71,0.79,1.24,0.79c0.16,0,0.38-0.06,0.64-0.17c0.27-0.12,0.46-0.17,0.57-0.17c0.4,0,0.61,0.26,0.61,0.79
				c0,0.34-0.17,0.62-0.5,0.84c-0.33,0.21-0.79,0.32-1.36,0.32c-2.14,0-3.21-1.59-3.21-4.77c0-0.67,0.07-1.41,0.22-2.21
				c-0.14,0.02-0.45,0.09-0.92,0.19c-0.31,0.07-0.54,0.1-0.68,0.1c-0.54,0-0.81-0.23-0.81-0.69c0-0.63,0.93-1.04,2.8-1.23
				c0.38-1.36,0.85-2.03,1.41-2.03c0.17,0,0.32,0.07,0.44,0.21c0.12,0.14,0.18,0.31,0.18,0.5c0,0.15-0.04,0.33-0.11,0.55
				s-0.15,0.45-0.23,0.67C48.27,43.64,49.25,44.11,49.25,45z"/>
			<path class="st1" d="M57.32,46.41c0.34,0.48,0.44,0.94,0.31,1.38c-0.06,0.19-0.38,0.62-0.97,1.28c-0.78,0.88-1.5,1.56-2.16,2.03
				c-0.3,0.21-0.68,0.45-1.14,0.71c1.23,1.73,2.43,2.17,3.62,1.33c0.33-0.23,0.55-0.54,0.66-0.94c0.06-0.19,0.12-0.61,0.19-1.24
				c0.02-0.23,0.1-0.39,0.24-0.49c0.17-0.12,0.37-0.16,0.6-0.1c0.23,0.05,0.42,0.19,0.57,0.4c0.12,0.17,0.18,0.38,0.16,0.61
				c-0.09,1.37-0.62,2.39-1.57,3.07c-1.97,1.4-3.85,0.84-5.66-1.7c-0.93-1.31-1.42-2.66-1.47-4.05c-0.05-1.58,0.44-2.75,1.49-3.5
				c0.82-0.58,1.71-0.76,2.67-0.53C55.84,44.88,56.65,45.47,57.32,46.41z M56.15,47.37c-0.48-0.62-0.99-1.02-1.52-1.19
				c-0.54-0.18-1.01-0.12-1.42,0.17c-0.53,0.38-0.85,0.93-0.96,1.65c-0.11,0.73,0.01,1.56,0.36,2.5c0.32-0.17,0.64-0.37,0.97-0.61
				C54.38,49.31,55.24,48.48,56.15,47.37z"/>
			<path class="st1" d="M67.62,47.55c-0.14,0.57-0.87,1.16-2.17,1.77c-0.92,0.43-2,0.48-3.23,0.17c-1.22-0.31-2.08-0.99-2.56-2.03
				c-0.5-1.06-0.55-2.36-0.16-3.89c0.5-1.98,1.31-3.42,2.42-4.31s2.38-1.16,3.83-0.79c1.07,0.27,1.88,0.75,2.44,1.44
				c0.53,0.65,0.7,1.3,0.53,1.97c-0.14,0.55-0.45,0.77-0.93,0.64c-0.22-0.06-0.37-0.18-0.43-0.38c-0.03-0.26-0.09-0.6-0.19-1.01
				c-0.25-0.53-0.85-0.91-1.81-1.16c-1-0.25-1.87-0.05-2.61,0.61c-0.75,0.66-1.31,1.74-1.69,3.23c-0.6,2.36-0.02,3.76,1.73,4.2
				c1.02,0.26,1.98,0.1,2.9-0.49c0.01,0,0.23-0.21,0.66-0.62c0.26-0.25,0.51-0.34,0.74-0.28c0.18,0.05,0.33,0.16,0.44,0.35
				C67.63,47.18,67.67,47.37,67.62,47.55z"/>
			<path class="st1" d="M77.1,48.49c0,1.61-0.14,2.9-0.42,3.87c-0.26,0.92-0.59,1.38-0.99,1.38c-0.23,0-0.42-0.08-0.58-0.23
				c-0.16-0.15-0.23-0.33-0.23-0.53c0.47-1.98,0.71-3.47,0.71-4.49c0-1.53-0.16-2.63-0.47-3.33c-0.32-0.71-0.85-1.07-1.58-1.07
				c-0.38,0-0.78,0.1-1.17,0.31c-0.4,0.21-0.71,0.46-0.92,0.76c-0.27,0.38-0.4,0.95-0.4,1.71v0.54c0,1.44,0.05,2.83,0.15,4.17
				c0.1,1.35,0.15,1.98,0.15,1.89c0,0.56-0.23,0.84-0.7,0.84c-0.27,0-0.46-0.09-0.57-0.28c-0.1-0.16-0.18-0.48-0.24-0.95
				c-0.17-1.31-0.26-3.06-0.26-5.23c0-1.91,0.19-4.09,0.57-6.55c0.09-0.53,0.17-0.88,0.24-1.05c0.12-0.24,0.31-0.35,0.57-0.35
				c0.19,0,0.35,0.08,0.48,0.24s0.2,0.36,0.2,0.61c0-0.01-0.13,0.93-0.39,2.84c0.67-0.69,1.48-1.04,2.43-1.04
				C75.96,42.53,77.1,44.52,77.1,48.49z"/>
		</g>
	</g>
	<ellipse class="st4" cx="49.91" cy="49.96" rx="49.91" ry="49.96"/>
	<path class="st1" d="M40.63,61.89c-0.05,0.1-0.15,0.25-0.31,0.46c-0.15,0.21-0.26,0.37-0.32,0.48l-0.08,0.16
		c-0.19,0.38-0.35,0.62-0.46,0.72c-0.16,0.14-0.35,0.15-0.58,0.04c-0.25-0.13-0.34-0.38-0.26-0.75c0.04-0.18,0.15-0.46,0.33-0.84
		c-0.3-0.58-0.71-1.01-1.24-1.27c-0.67-0.34-1.33-0.41-1.98-0.2c-0.65,0.21-1.15,0.65-1.5,1.32c-0.3,0.57-0.37,1.06-0.23,1.46
		c0.1,0.28,0.41,0.69,0.94,1.24c0.48,0.5,0.8,0.85,0.96,1.06c0.27,0.36,0.45,0.7,0.52,1.03c0.11,0.49,0.02,1.01-0.27,1.57
		c-0.3,0.58-0.76,0.93-1.37,1.05c-0.62,0.11-1.31-0.03-2.08-0.42c-0.58-0.3-0.97-0.68-1.17-1.14l-0.55,1.05
		c-0.18,0.35-0.44,0.44-0.78,0.26c-0.35-0.18-0.41-0.5-0.17-0.97l0.39-0.76c0.52-1,0.88-1.65,1.11-1.93
		c0.3-0.38,0.58-0.51,0.85-0.37c0.21,0.11,0.31,0.27,0.3,0.48c-0.01,0.13-0.05,0.29-0.12,0.5c-0.1,0.27-0.15,0.45-0.17,0.54
		c-0.12,0.51,0.11,0.92,0.7,1.23c1.02,0.53,1.69,0.48,2.01-0.13c0.16-0.3,0.17-0.6,0.05-0.91c-0.1-0.25-0.34-0.58-0.71-0.98
		l-0.77-0.82c-0.56-0.61-0.89-1.17-0.98-1.67c-0.09-0.53,0.04-1.14,0.4-1.84c0.52-1.01,1.26-1.68,2.22-1.98
		c0.96-0.31,1.94-0.2,2.95,0.31c0.58,0.3,1.04,0.74,1.39,1.32c0.28-0.32,0.56-0.4,0.83-0.26C40.82,61.1,40.87,61.42,40.63,61.89z"/>
	<path class="st1" d="M44.33,67.93c0,1.15-0.34,2.06-1.01,2.75s-1.57,1.02-2.69,1.02c-0.93,0-1.66-0.32-2.19-0.95
		s-0.79-1.52-0.79-2.65c0-1.19,0.32-2.11,0.96-2.77c0.63-0.64,1.49-0.97,2.6-0.97c0.93,0,1.68,0.33,2.26,0.98
		S44.33,66.86,44.33,67.93z M43.17,67.94c0-0.79-0.19-1.4-0.57-1.84s-0.9-0.67-1.56-0.67c-1.47,0-2.21,0.88-2.21,2.65
		c0,0.82,0.16,1.44,0.48,1.88s0.78,0.66,1.38,0.66c0.77,0,1.38-0.24,1.82-0.71S43.17,68.79,43.17,67.94z"/>
	<path class="st1" d="M52.98,73.17c0.06,0.18,0.06,0.34,0,0.5s-0.17,0.27-0.33,0.32c-0.29,0.1-0.69-0.26-1.21-1.08
		c-0.32,1.07-0.92,1.76-1.81,2.08c-1.47,0.52-2.62-0.39-3.45-2.74c-0.43-1.2-0.72-2.28-0.88-3.23c-0.1-0.59,0.04-0.95,0.41-1.08
		c0.13-0.05,0.27-0.04,0.4,0.03c0.13,0.06,0.23,0.16,0.27,0.3c0.04,0.12,0.15,0.59,0.33,1.43c0.18,0.83,0.38,1.59,0.63,2.28
		c0.56,1.58,1.27,2.21,2.14,1.9c0.56-0.2,0.93-0.58,1.11-1.13c0.17-0.55,0.12-1.23-0.16-2.02L50.3,70.4
		c-0.44-1.23-0.69-2.04-0.75-2.41c-0.09-0.53,0.03-0.86,0.35-0.97c0.31-0.11,0.54,0.05,0.69,0.48c0.03,0.08,0.11,0.36,0.25,0.86
		c0.14,0.49,0.28,0.94,0.42,1.34c0.33,0.94,0.71,1.78,1.13,2.52S53.02,73.28,52.98,73.17z"/>
	<path class="st1" d="M60.86,69.37c0,1-0.3,1.8-0.89,2.39s-1.39,0.89-2.39,0.89c-0.56,0-1.1-0.12-1.63-0.37
		c-0.09,0.91-0.16,1.48-0.22,1.69c-0.1,0.34-0.28,0.52-0.54,0.52c-0.17,0-0.3-0.05-0.42-0.15s-0.17-0.23-0.17-0.38
		c0,0.02,0.03-0.22,0.09-0.74c0.08-0.61,0.14-1.27,0.18-1.97c0.06-1.02,0.09-2.11,0.09-3.29c0-0.23,0-0.5-0.01-0.81
		s-0.01-0.49-0.01-0.55c0-0.52,0.18-0.78,0.54-0.78c0.38,0,0.57,0.18,0.59,0.54l0.01,0.36c0.47-0.45,1.08-0.68,1.82-0.68
		c0.89,0,1.6,0.3,2.13,0.89C60.59,67.54,60.86,68.35,60.86,69.37z M59.7,69.37c0-0.71-0.17-1.27-0.5-1.66s-0.79-0.59-1.38-0.59
		c-0.92,0-1.49,0.29-1.71,0.87v0.58c0,0.91-0.02,1.8-0.07,2.67c0.5,0.24,1.02,0.36,1.54,0.36c0.68,0,1.2-0.19,1.57-0.58
		S59.7,70.09,59.7,69.37z"/>
	<g>
		<defs>
			<ellipse id="SVGID_1_" cx="50.09" cy="50.04" rx="49.91" ry="49.96"/>
		</defs>
		<clipPath id="SVGID_2_">
			<use xlink:href="#SVGID_1_"  style="overflow:visible;"/>
		</clipPath>
		<line class="st5" x1="81.12" y1="48.8" x2="107.12" y2="49.4"/>
	</g>
</g>
</svg>
